<svg width="147" height="117" viewBox="0 0 147 117" fill="none" xmlns="http://www.w3.org/2000/svg">
<g clip-path="url(#clip0_133_38)">
<path d="M146.916 18.4737V111.878C146.916 114.705 144.306 117 141.471 117H4.60252C1.76804 117 -0.449028 114.705 -0.449028 111.878V2.57512C-0.420964 1.14761 0.61741 0 2.04868 0H77.1764C78.6077 0 80.1231 1.14761 80.1231 2.57512V13.4354H141.471C144.306 13.4354 146.916 15.6467 146.916 18.4737Z" fill="#CFCCC5"/>
<path d="M39.98 79V52.252H51.716C52.628 52.252 53.564 52.36 54.524 52.576C55.484 52.768 56.36 53.188 57.152 53.836C57.968 54.46 58.616 55.42 59.096 56.716C59.6 57.988 59.852 59.692 59.852 61.828C59.852 63.988 59.612 65.728 59.132 67.048C58.652 68.344 58.028 69.328 57.26 70C56.492 70.648 55.652 71.092 54.74 71.332C53.852 71.548 52.976 71.656 52.112 71.656C51.656 71.656 51.176 71.632 50.672 71.584C50.192 71.536 49.712 71.476 49.232 71.404C48.776 71.308 48.344 71.224 47.936 71.152C47.552 71.056 47.228 70.984 46.964 70.936V79H39.98ZM46.964 65.392H50.996C51.476 65.392 51.848 65.26 52.112 64.996C52.4 64.732 52.592 64.348 52.688 63.844C52.808 63.316 52.868 62.668 52.868 61.9C52.868 61.156 52.796 60.532 52.652 60.028C52.532 59.524 52.34 59.152 52.076 58.912C51.812 58.648 51.452 58.516 50.996 58.516H46.964V65.392ZM62.7613 79V58.876C62.7613 57.58 62.9653 56.5 63.3733 55.636C63.7813 54.772 64.3093 54.1 64.9573 53.62C65.6053 53.116 66.3253 52.768 67.1173 52.576C67.9093 52.36 68.6773 52.252 69.4213 52.252C70.1653 52.252 71.1973 52.264 72.5173 52.288C73.8373 52.288 75.2653 52.336 76.8013 52.432C78.3613 52.504 79.8373 52.636 81.2293 52.828V58.696H71.4373C70.8373 58.696 70.4053 58.864 70.1413 59.2C69.8773 59.512 69.7453 59.848 69.7453 60.208V63.232L79.4293 63.592V69.136L69.7453 69.496V79H62.7613ZM95.4051 79L82.1211 59.596H89.1411L102.425 79H95.4051ZM82.1211 79L89.7531 67.048L92.2371 73.672L89.1771 79H82.1211ZM94.7931 71.62L91.8771 65.716L95.3691 59.596H102.425L94.7931 71.62Z" fill="#29363F"/>
</g>
<defs>
<clipPath id="clip0_133_38">
<rect width="147" height="117" fill="white"/>
</clipPath>
</defs>
</svg>
